<svg height="64" preserveAspectRatio="none" viewBox="0 0 64 64" width="64" xmlns="http://www.w3.org/2000/svg" xmlns:xlink="http://www.w3.org/1999/xlink"><linearGradient id="a" gradientTransform="matrix(-1 0 0 1 64 0)" gradientUnits="userSpaceOnUse" x1="32" x2="32" y1="2.000001" y2="62"><stop offset=".5" stop-color="#fff"/><stop offset="1" stop-color="#f5f5f5"/></linearGradient><linearGradient id="b" gradientUnits="userSpaceOnUse" x1="32" x2="32" y1="2" y2="62"><stop offset="0" stop-color="#fff"/><stop offset="1" stop-color="#868686"/></linearGradient><linearGradient id="c" gradientUnits="userSpaceOnUse" x1="31.75" x2="31.75" y1="39.416626" y2="62"><stop offset="0" stop-color="#b2b2b3"/><stop offset="1" stop-color="#3e3a39"/></linearGradient><linearGradient id="d" gradientUnits="userSpaceOnUse" x1="31.75" x2="31.75" y1="39.416622" y2="62.000004"><stop offset="0" stop-color="#fff"/><stop offset="1" stop-color="#3e3a39"/></linearGradient><path d="m62 2h-60v55l5 5h55z" fill="url(#a)"/><path d="m60 4v56h-52.1715751l-3.8284249-3.8284264v-52.1715736zm2-2h-60v55l5 5h55z" fill="url(#b)"/><path d="m61 3v58h-53.5857801l-4.4142199-4.4142189v-53.5857811zm1-1h-60v55l5 5h55z" fill="#3e3a39"/><path d="m55.6865234 11.0371094c-.1376953 0-.25-.1118164-.25-.25v-2.5424805c0-.1381836.1123047-.25.25-.25h2.5419922c.1376953 0 .25.1118164.25.25v2.5424805c0 .1381836-.1123047.25-.25.25z" fill="#717071"/><path d="m58.228817 8.2447014v2.5423698h-2.5423813v-2.5423698zm0-.5h-2.5423813c-.2761383 0-.5.2238617-.5.5v2.5423698c0 .2761421.2238617.5.5.5h2.5423813c.2761383 0 .5-.2238579.5-.5v-2.5423698c0-.2761383-.2238617-.5-.5-.5z" fill="#3e3a39"/><path d="m45.333313 39.416626h-27.166626c-.5523071 0-1 .5034904-1 1.1244812v21.4588928h29.166626v-21.4588928c0-.6209908-.4476929-1.1244812-1-1.1244812zm-18 19.2882423c0 .3951187-.1305542.7154274-.291626.7154274h-5.25c-.1611328 0-.291687-.3203087-.291687-.7154274v-15.3371162c0-.3951187.1305542-.7154274.291687-.7154274h5.25c.1610718 0 .291626.3203087.291626.7154274z" fill="url(#c)"/><path d="m45.2982025 40.4166222c.0142746.019146.0351067.0601082.0351067.1244812v20.4589005h-27.1666184v-20.4589005c0-.076931.0297527-.1204224.0082912-.1244812zm-23.5065117 20.0036697h5.25c.7604885 0 1.2916183-.70541 1.2916183-1.7154274v-15.3371124c0-1.0100174-.5311298-1.7154312-1.2916183-1.7154312h-5.25c-.7605305 0-1.2916908.7054138-1.2916908 1.7154312v15.3371124c0 1.0100174.5311604 1.7154274 1.2916908 1.7154274m23.5416184-21.0036697h-27.1666184c-.5523109 0-1 .5034904-1 1.1244812v21.4589005h29.1666183v-21.4589005c.0000001-.6209908-.447689-1.1244812-.9999999-1.1244812zm-23.5416184 20.0036697c-.1611404 0-.2916908-.3203087-.2916908-.7154274v-15.3371124c0-.3951187.1305504-.7154312.2916908-.7154312h5.25c.1610699 0 .2916183.3203125.2916183.7154312v15.3371124c0 .3951187-.1305485.7154274-.2916183.7154274z" fill="url(#d)"/><path d="m45.3333092 39.9166222c.2756996 0 .5.2801399.5.6244812v20.9589005h-28.1666184v-20.9589005c0-.3443413.2242985-.6244812.5-.6244812zm-23.5416184 20.0036697h5.25c.4734898 0 .7916183-.4884377.7916183-1.2154274v-15.3371124c0-.7269897-.3181286-1.2154312-.7916183-1.2154312h-5.25c-.4735317 0-.7916908.4884414-.7916908 1.2154312v15.3371124c0 .7269897.3181591 1.2154274.7916908 1.2154274m23.5416184-20.5036697h-27.1666184c-.5523109 0-1 .5034904-1 1.1244812v21.4589005h29.1666183v-21.4589005c.0000001-.6209908-.447689-1.1244812-.9999999-1.1244812zm-23.5416184 20.0036697c-.1611404 0-.2916908-.3203087-.2916908-.7154274v-15.3371124c0-.3951187.1305504-.7154312.2916908-.7154312h5.25c.1610699 0 .2916183.3203125.2916183.7154312v15.3371124c0 .3951187-.1305485.7154274-.2916183.7154274z" fill="#3e3a39"/><path d="m11.5 36.5c-.8271484 0-1.5-.6728516-1.5-1.5v-32.5h41.5v32.5c0 .8271484-.6728516 1.5-1.5 1.5z" fill="#f5f5f5"/><path d="m51 3v32c0 .5513992-.4486008 1-1 1h-38.5c-.5514002 0-1-.4486008-1-1v-32zm1-1h-42.5v33c0 1.1045685.8954296 2 2 2h38.5c1.1045685 0 2-.8954315 2-2z" fill="#3e3a39"/></svg>